<svg 
 xmlns="http://www.w3.org/2000/svg"
 xmlns:xlink="http://www.w3.org/1999/xlink"
 width="512px" height="512px">
<path fill-rule="evenodd"  fill="rgb(0, 0, 0)"
 d="M256.0,0.0 C397.384,0.0 511.999,114.615 511.999,256.0 C511.999,397.384 397.384,511.999 256.0,511.999 C114.615,511.999 0.0,397.384 0.0,256.0 C0.0,114.615 114.615,0.0 256.0,0.0 Z"/>
<path fill-rule="evenodd"  fill="rgb(52, 32, 140)"
 d="M256.0,481.0 C131.735,481.0 31.0,380.264 31.0,255.999 C31.0,131.735 131.735,30.999 256.0,30.999 C380.264,30.999 481.0,131.735 481.0,255.999 C481.0,380.264 380.264,481.0 256.0,481.0 Z"/>
<path fill-rule="evenodd"  fill="rgb(74, 55, 160)"
 d="M249.108,480.885 C247.891,480.848 246.676,480.802 245.464,480.746 C244.854,480.718 244.244,480.690 243.635,480.657 C243.456,480.647 243.278,480.633 243.99,480.623 C242.17,480.562 240.937,480.494 239.859,480.418 C239.371,480.383 238.881,480.355 238.394,480.317 C236.770,480.192 235.153,480.46 233.540,479.886 C232.833,479.816 232.128,479.735 231.423,479.658 C230.463,479.554 229.504,479.446 228.547,479.329 C227.722,479.229 226.899,479.124 226.77,479.15 C225.258,478.906 224.442,478.789 223.627,478.672 C222.747,478.545 221.866,478.421 220.989,478.284 C220.565,478.217 220.143,478.145 219.720,478.73 C219.558,478.47 219.397,478.20 219.236,477.993 C217.305,477.675 215.382,477.334 213.468,476.967 C213.343,476.943 213.217,476.919 213.92,476.895 C212.728,476.825 212.363,476.758 212.0,476.686 C210.904,476.469 209.812,476.241 208.722,476.8 C208.703,476.4 208.684,475.999 208.664,475.995 C208.252,475.907 207.841,475.817 207.429,475.726 C206.262,475.469 205.97,475.208 203.937,474.933 C203.910,474.927 203.884,474.920 203.857,474.914 C201.844,474.435 199.843,473.929 197.852,473.397 C197.815,473.387 197.778,473.377 197.741,473.367 C195.759,472.836 193.787,472.280 191.826,471.697 C191.647,471.644 191.469,471.592 191.290,471.538 C190.8,471.154 188.730,470.760 187.458,470.354 L175.14,287.588 L324.50,470.513 C324.50,470.513 324.50,470.513 324.50,470.513 C322.920,470.871 321.783,471.216 320.646,471.557 C320.264,471.671 319.882,471.785 319.500,471.898 C318.398,472.221 317.293,472.539 316.184,472.846 C315.953,472.910 315.721,472.971 315.490,473.34 C315.379,473.64 315.269,473.94 315.159,473.123 C311.675,474.71 308.157,474.935 304.609,475.718 C304.29,475.845 303.450,475.973 302.870,476.96 C301.905,476.301 300.939,476.500 299.970,476.692 C299.581,476.769 299.191,476.841 298.802,476.915 C298.510,476.971 298.218,477.28 297.926,477.83 C297.10,477.256 296.96,477.431 295.177,477.593 C293.725,477.848 292.268,478.90 290.807,478.317 C290.44,478.436 289.277,478.541 288.512,478.652 C287.587,478.786 286.661,478.919 285.732,479.41 C284.974,479.142 284.214,479.237 283.454,479.329 C282.442,479.452 281.428,479.567 280.412,479.677 C279.750,479.749 279.88,479.824 278.424,479.889 C277.319,479.999 276.210,480.91 275.101,480.184 C274.575,480.229 274.52,480.284 273.525,480.324 C273.127,480.355 272.727,480.377 272.329,480.406 C270.991,480.502 269.651,480.588 268.306,480.661 C267.720,480.692 267.133,480.719 266.546,480.746 C266.79,480.768 265.609,480.781 265.142,480.799 C264.381,480.830 263.621,480.863 262.859,480.886 C262.318,480.902 261.778,480.921 261.237,480.933 C259.495,480.973 257.751,481.0 256.0,481.0 C254.246,481.0 252.499,480.973 250.755,480.933 C250.205,480.921 249.657,480.901 249.108,480.885 Z"/>
<path fill-rule="evenodd"  fill="rgb(74, 55, 160)"
 d="M264.90,31.160 C265.481,31.209 266.872,31.261 268.257,31.335 C269.10,31.376 269.760,31.430 270.511,31.478 C271.794,31.560 273.76,31.645 274.353,31.748 C275.124,31.810 275.891,31.883 276.660,31.953 C277.922,32.68 279.182,32.189 280.438,32.325 C280.981,32.384 281.523,32.449 282.66,32.511 C282.273,32.535 282.481,32.558 282.689,32.582 C283.971,32.734 285.251,32.896 286.527,33.69 C286.693,33.92 286.859,33.116 287.26,33.139 C287.564,33.213 288.102,33.286 288.638,33.364 C289.982,33.560 291.321,33.769 292.656,33.988 C293.279,34.90 293.902,34.190 294.523,34.297 C295.993,34.551 297.457,34.823 298.917,35.105 C299.394,35.198 299.872,35.285 300.348,35.380 C302.109,35.732 303.861,36.105 305.606,36.498 C305.694,36.518 305.783,36.536 305.871,36.556 C305.953,36.574 306.35,36.591 306.117,36.610 C314.87,38.424 321.896,40.663 329.520,43.299 C329.656,43.346 329.792,43.395 329.928,43.443 C331.680,44.52 333.422,44.682 335.154,45.334 C335.162,45.337 335.170,45.340 335.179,45.343 C335.355,45.409 335.531,45.477 335.707,45.544 C337.405,46.188 339.95,46.851 340.773,47.535 C340.882,47.579 340.990,47.623 341.98,47.667 C341.166,47.695 341.233,47.722 341.301,47.750 C343.14,48.453 344.716,49.175 346.408,49.918 C346.453,49.938 346.497,49.957 346.542,49.977 C346.617,50.10 346.692,50.42 346.767,50.76 C348.567,50.870 350.355,51.686 352.130,52.525 C352.130,52.525 352.130,52.525 352.130,52.525 C352.130,52.525 352.130,52.525 352.130,52.525 L352.387,140.730 L176.922,287.588 L106.326,88.20 C107.712,86.784 109.114,85.566 110.531,84.364 C110.548,84.349 110.565,84.335 110.582,84.321 C111.984,83.132 113.402,81.959 114.833,80.804 C114.860,80.783 114.887,80.761 114.914,80.740 C116.339,79.591 117.778,78.459 119.231,77.345 C119.262,77.321 119.293,77.298 119.324,77.274 C120.777,76.161 122.243,75.66 123.723,73.989 C123.754,73.966 123.785,73.944 123.815,73.922 C125.299,72.843 126.796,71.781 128.307,70.738 C128.334,70.720 128.360,70.701 128.387,70.683 C129.905,69.635 131.436,68.606 132.981,67.595 C133.1,67.583 133.20,67.570 133.40,67.557 C134.594,66.541 136.161,65.543 137.742,64.564 C137.752,64.558 137.762,64.551 137.773,64.545 C139.364,63.560 140.969,62.594 142.586,61.648 C142.600,61.640 142.614,61.632 142.627,61.624 C142.673,61.597 142.718,61.570 142.763,61.543 C144.66,60.783 145.379,60.38 146.699,59.303 C146.897,59.193 147.94,59.81 147.292,58.971 C148.530,58.287 149.777,57.616 151.29,56.954 C151.199,56.864 151.368,56.775 151.538,56.685 C151.653,56.625 151.767,56.564 151.881,56.504 C153.82,55.876 154.290,55.260 155.503,54.653 C155.619,54.595 155.735,54.538 155.850,54.480 C156.76,54.368 156.301,54.255 156.527,54.144 C157.708,53.561 158.894,52.987 160.87,52.424 C160.465,52.246 160.844,52.70 161.223,51.894 C162.397,51.347 163.576,50.808 164.762,50.281 C165.159,50.105 165.558,49.933 165.956,49.759 C167.139,49.241 168.324,48.730 169.518,48.232 C169.828,48.103 170.141,47.979 170.452,47.851 C170.536,47.816 170.620,47.782 170.704,47.748 C171.914,47.251 173.126,46.759 174.346,46.284 C174.696,46.147 175.49,46.18 175.399,45.883 C176.676,45.393 177.955,44.907 179.243,44.439 C179.276,44.427 179.309,44.416 179.343,44.404 C179.473,44.358 179.604,44.313 179.734,44.266 C181.807,43.519 183.897,42.806 185.998,42.119 C186.171,42.63 186.343,42.7 186.516,41.951 C188.611,41.273 190.718,40.620 192.839,40.0 C192.961,39.965 193.82,39.928 193.203,39.892 C193.454,39.819 193.702,39.741 193.953,39.669 C195.6,39.367 196.67,39.85 197.126,38.798 C197.491,38.700 197.854,38.599 198.220,38.502 C198.525,38.419 198.831,38.334 199.138,38.254 C200.106,38.2 201.79,37.765 202.52,37.526 C202.826,37.335 203.598,37.141 204.375,36.959 C205.301,36.741 206.232,36.537 207.163,36.331 C207.775,36.195 208.388,36.63 209.1,35.931 C209.222,35.884 209.442,35.833 209.663,35.786 C210.564,35.598 211.469,35.419 212.374,35.241 C213.248,35.69 214.124,34.899 215.2,34.738 C215.885,34.575 216.770,34.420 217.657,34.268 C218.567,34.111 219.478,33.960 220.392,33.814 C221.259,33.676 222.128,33.543 222.999,33.415 C223.451,33.349 223.905,33.289 224.358,33.225 C224.850,33.156 225.341,33.84 225.835,33.18 C226.686,32.904 227.538,32.792 228.392,32.687 C229.371,32.567 230.353,32.458 231.336,32.351 C232.168,32.260 232.998,32.168 233.832,32.87 C234.472,32.24 235.115,31.973 235.756,31.916 C236.141,31.883 236.525,31.846 236.910,31.813 C237.712,31.746 238.512,31.675 239.316,31.616 C240.405,31.536 241.499,31.472 242.593,31.408 C243.342,31.364 244.89,31.313 244.839,31.276 C246.65,31.216 247.296,31.176 248.527,31.136 C249.152,31.116 249.775,31.86 250.402,31.70 C252.262,31.25 254.128,30.999 256.0,30.999 C258.53,30.999 260.100,31.31 262.140,31.86 C262.792,31.103 263.439,31.137 264.90,31.160 Z"/>
<path fill-rule="evenodd"  fill="rgb(175, 159, 244)"
 d="M479.784,232.527 L346.666,148.359 L346.943,50.152 C351.440,52.142 355.860,54.276 360.197,56.546 C360.213,56.555 360.230,56.563 360.246,56.572 C360.258,56.578 360.269,56.584 360.280,56.590 C361.898,57.438 363.505,58.305 365.99,59.191 C365.100,59.191 365.101,59.192 365.102,59.192 C369.886,61.850 374.562,64.677 379.124,67.665 C379.177,67.700 379.230,67.735 379.283,67.770 C379.295,67.778 379.306,67.785 379.318,67.793 C380.826,68.783 382.321,69.790 383.803,70.815 C383.805,70.817 383.807,70.818 383.809,70.819 C388.257,73.895 392.589,77.128 396.798,80.508 C396.831,80.535 396.864,80.562 396.898,80.589 C396.964,80.642 397.31,80.695 397.97,80.749 C398.485,81.868 399.859,83.3 401.220,84.154 C401.224,84.157 401.229,84.161 401.233,84.165 C405.319,87.622 409.280,91.222 413.109,94.958 C413.237,95.82 413.365,95.207 413.492,95.332 C416.894,98.667 420.193,102.106 423.379,105.650 C423.410,105.685 423.441,105.721 423.472,105.756 C423.474,105.757 423.475,105.759 423.477,105.761 C424.994,107.451 426.483,109.167 427.950,110.903 C427.981,110.940 428.13,110.977 428.44,111.14 C428.157,111.148 428.271,111.282 428.384,111.416 C431.409,115.19 434.324,118.717 437.123,122.507 C437.235,122.658 437.345,122.812 437.456,122.964 C438.733,124.702 439.985,126.461 441.212,128.237 C441.359,128.450 441.508,128.661 441.654,128.874 C444.292,132.719 446.814,136.651 449.214,140.663 C449.366,140.917 449.515,141.172 449.665,141.426 C450.730,143.222 451.771,145.33 452.786,146.860 C452.920,147.101 453.56,147.340 453.189,147.581 C455.431,151.649 457.548,155.795 459.540,160.12 C459.579,160.94 459.617,160.176 459.655,160.258 C459.776,160.515 459.895,160.772 460.15,161.29 C460.887,162.899 461.735,164.781 462.556,166.678 C462.641,166.875 462.728,167.71 462.814,167.267 C462.835,167.317 462.858,167.367 462.880,167.417 C464.713,171.693 466.412,176.38 467.983,180.445 C468.127,180.848 468.269,181.253 468.410,181.657 C469.100,183.628 469.766,185.611 470.402,187.606 C470.472,187.826 470.546,188.44 470.615,188.264 C471.332,190.537 472.15,192.826 472.661,195.130 C472.710,195.306 472.755,195.484 472.804,195.660 C473.374,197.712 473.912,199.778 474.425,201.854 C474.535,202.302 474.645,202.750 474.753,203.199 C475.261,205.312 475.744,207.435 476.193,209.571 C476.223,209.716 476.257,209.860 476.287,210.4 C476.775,212.357 477.225,214.723 477.639,217.101 C477.664,217.244 477.687,217.387 477.710,217.530 C477.738,217.688 477.762,217.847 477.789,218.5 C478.135,220.37 478.451,222.79 478.742,224.129 C478.781,224.407 478.820,224.684 478.859,224.962 C478.885,225.156 478.914,225.350 478.940,225.544 C479.254,227.862 479.542,230.188 479.784,232.527 Z"/>
<path fill-rule="evenodd"  fill="rgb(133, 113, 218)"
 d="M480.879,263.43 C480.841,264.267 480.797,265.490 480.740,266.709 C480.710,267.353 480.675,267.996 480.640,268.638 C480.623,268.938 480.601,269.236 480.583,269.535 C480.531,270.403 480.479,271.271 480.418,272.136 C480.374,272.757 480.331,273.379 480.282,274.0 C480.226,274.706 480.157,275.410 480.94,276.115 C480.41,276.712 479.993,277.311 479.935,277.908 C479.892,278.358 479.855,278.811 479.809,279.261 C479.806,279.287 479.802,279.314 479.799,279.340 C479.624,281.46 479.430,282.747 479.216,284.442 C479.163,284.861 479.101,285.278 479.46,285.697 C478.873,287.7 478.693,288.314 478.498,289.616 C478.405,290.233 478.306,290.848 478.208,291.463 C478.121,292.18 478.25,292.571 477.933,293.125 C477.840,293.684 477.752,294.244 477.655,294.802 C477.543,295.446 477.429,296.90 477.312,296.732 C477.273,296.947 477.229,297.160 477.189,297.374 C477.20,298.281 476.848,299.187 476.669,300.90 C476.552,300.678 476.439,301.267 476.318,301.853 C476.18,303.299 475.704,304.740 475.377,306.176 C475.322,306.413 475.274,306.653 475.219,306.890 C474.962,308.2 474.682,309.104 474.409,310.209 C474.278,310.736 474.157,311.267 474.23,311.792 C473.875,312.374 473.717,312.951 473.564,313.530 C473.457,313.935 473.345,314.338 473.236,314.742 C473.56,315.409 472.881,316.78 472.695,316.742 C472.511,317.402 472.321,318.59 472.131,318.716 C471.842,319.714 471.545,320.709 471.243,321.701 C471.42,322.358 470.843,323.15 470.636,323.670 C470.306,324.720 469.963,325.765 469.618,326.808 C469.429,327.378 469.246,327.951 469.53,328.518 C468.687,329.593 468.304,330.660 467.923,331.727 C467.757,332.190 467.600,332.658 467.432,333.120 C467.238,333.651 467.34,334.176 466.836,334.704 C466.447,335.747 466.54,336.789 465.650,337.825 C465.385,338.503 465.112,339.178 464.840,339.854 C464.681,340.250 464.517,340.644 464.356,341.39 C464.158,341.524 463.963,342.11 463.761,342.495 C463.467,343.200 463.170,343.904 462.869,344.606 C462.503,345.459 462.130,346.308 461.753,347.156 C461.446,347.848 461.141,348.542 460.827,349.230 C460.406,350.155 459.972,351.73 459.539,351.990 C459.118,352.881 458.694,353.770 458.262,354.654 C457.726,355.750 457.187,356.844 456.634,357.929 C456.268,358.647 455.892,359.358 455.519,360.72 C455.127,360.822 454.735,361.571 454.335,362.316 C453.931,363.67 453.521,363.814 453.109,364.561 C452.725,365.256 452.338,365.950 451.947,366.641 C451.516,367.401 451.85,368.160 450.646,368.915 C450.294,369.520 449.934,370.121 449.577,370.722 C449.543,370.779 449.510,370.836 449.477,370.892 C449.21,371.658 448.568,372.426 448.103,373.187 C447.752,373.761 447.390,374.328 447.34,374.899 C446.89,376.415 445.126,377.919 444.145,379.411 C443.945,379.715 443.746,380.20 443.544,380.324 C443.388,380.562 443.233,380.800 443.75,381.36 C442.533,381.845 441.982,382.647 441.430,383.449 C441.61,383.984 440.693,384.518 440.320,385.50 C439.753,385.858 439.181,386.662 438.603,387.462 C438.515,387.585 438.425,387.706 438.337,387.828 C438.65,388.202 437.794,388.575 437.521,388.947 C436.914,389.774 436.306,390.600 435.688,391.419 C435.428,391.764 435.162,392.104 434.900,392.447 C434.877,392.476 434.854,392.506 434.832,392.536 C433.701,394.14 432.553,395.477 431.388,396.926 C431.385,396.929 431.383,396.932 431.380,396.935 C430.215,398.384 429.32,399.818 427.831,401.237 C427.609,401.500 427.388,401.763 427.164,402.25 C427.105,402.95 427.47,402.165 426.987,402.235 C426.259,403.85 425.522,403.929 424.781,404.768 C424.523,405.61 424.264,405.352 424.5,405.643 C423.954,405.700 423.903,405.758 423.852,405.815 C423.92,406.666 422.328,407.512 421.556,408.351 C421.305,408.623 421.51,408.893 420.799,409.164 C417.81,413.162 413.220,417.25 409.223,420.744 C409.15,420.938 408.807,421.133 408.598,421.326 C407.674,422.179 406.742,423.25 405.803,423.863 C405.600,424.45 405.395,424.225 405.190,424.407 C401.188,427.954 397.60,431.362 392.811,434.621 C392.804,434.626 392.797,434.631 392.791,434.636 C391.377,435.721 389.949,436.789 388.509,437.840 C388.458,437.877 388.408,437.914 388.357,437.951 C388.282,438.5 388.208,438.60 388.133,438.114 C387.5,438.934 385.871,439.744 384.727,440.543 C384.694,440.567 384.660,440.590 384.626,440.613 C381.611,442.718 378.542,444.750 375.421,446.708 C375.420,446.709 375.419,446.710 375.418,446.710 C373.859,447.689 372.287,448.648 370.703,449.589 C370.700,449.590 370.698,449.592 370.695,449.593 C369.111,450.534 367.514,451.456 365.904,452.358 C365.875,452.374 365.847,452.390 365.818,452.407 C351.573,460.387 336.372,466.864 320.429,471.621 C277.500,414.715 175.14,285.680 175.14,285.680 L348.573,143.591 L479.480,229.863 C479.720,231.938 479.930,234.22 480.115,236.113 C480.115,236.120 480.116,236.127 480.117,236.134 C480.127,236.253 480.138,236.372 480.148,236.492 C480.314,238.399 480.450,240.314 480.568,242.235 C480.573,242.320 480.579,242.406 480.584,242.491 C480.597,242.706 480.613,242.919 480.625,243.134 C480.726,244.889 480.799,246.652 480.859,248.418 C480.868,248.703 480.883,248.987 480.891,249.273 C480.896,249.399 480.902,249.525 480.905,249.651 C480.965,251.760 480.999,253.876 480.999,256.0 C480.999,257.788 480.973,259.571 480.932,261.349 C480.919,261.915 480.896,262.478 480.879,263.43 Z"/>
<path fill-rule="evenodd"  fill-opacity="0.251" fill="rgb(23, 8, 89)"
 d="M249.371,480.895 C249.62,480.882 248.752,480.870 248.442,480.860 C247.94,480.815 245.744,480.774 244.402,480.706 C243.747,480.672 243.98,480.620 242.445,480.581 C241.181,480.506 239.916,480.437 238.658,480.341 C238.5,480.291 237.357,480.223 236.706,480.167 C235.454,480.61 234.200,479.960 232.953,479.833 C232.326,479.769 231.705,479.688 231.80,479.619 C229.814,479.480 228.548,479.345 227.289,479.184 C226.871,479.131 226.457,479.65 226.40,479.10 C225.868,478.985 225.696,478.961 225.524,478.937 C224.236,478.763 222.948,478.592 221.668,478.396 C221.118,478.312 220.574,478.212 220.27,478.124 C218.712,477.913 217.397,477.704 216.90,477.470 C215.586,477.380 215.86,477.275 214.583,477.181 C213.239,476.931 211.895,476.682 210.559,476.408 C210.101,476.314 209.647,476.206 209.190,476.110 C207.816,475.819 206.442,475.527 205.77,475.211 C204.665,475.116 204.257,475.9 203.847,474.911 C202.442,474.578 201.38,474.242 199.644,473.882 C199.426,473.826 199.210,473.766 198.994,473.706 C198.846,473.668 198.699,473.625 198.551,473.586 C197.117,473.209 195.685,472.827 194.262,472.422 C194.139,472.387 194.18,472.348 193.895,472.313 C193.699,472.254 193.502,472.195 193.305,472.137 C191.843,471.714 190.384,471.285 188.935,470.833 C188.836,470.802 188.738,470.768 188.640,470.737 C188.463,470.679 188.286,470.621 188.108,470.565 C186.621,470.94 185.136,469.617 183.662,469.117 C183.428,469.37 183.196,468.950 182.962,468.870 C181.451,468.351 179.944,467.824 178.448,467.275 C178.253,467.203 178.61,467.126 177.867,467.54 C176.335,466.486 174.808,465.908 173.292,465.309 C173.135,465.247 172.981,465.180 172.825,465.118 C171.274,464.501 169.730,463.871 168.198,463.221 C168.76,463.169 167.956,463.114 167.835,463.62 C166.270,462.395 164.712,461.714 163.166,461.13 C163.124,460.994 163.83,460.973 163.41,460.954 C162.994,460.932 162.948,460.910 162.900,460.889 C161.324,460.171 159.756,459.439 158.199,458.686 C158.157,458.666 158.116,458.645 158.74,458.624 C158.57,458.615 158.39,458.606 158.22,458.598 C156.438,457.830 154.863,457.47 153.300,456.243 C153.280,456.233 153.260,456.222 153.240,456.211 C153.227,456.205 153.214,456.198 153.201,456.191 C151.612,455.374 150.35,454.539 148.469,453.685 C148.458,453.680 148.448,453.674 148.438,453.668 C146.251,452.475 144.92,451.237 141.950,449.975 C141.578,449.756 141.206,449.537 140.835,449.316 C136.521,446.740 132.302,444.24 128.182,441.174 C127.849,440.944 127.515,440.714 127.183,440.482 C123.61,437.598 119.42,434.579 115.129,431.433 C114.828,431.191 114.525,430.949 114.225,430.705 C110.318,427.530 106.521,424.226 102.838,420.802 C102.562,420.545 102.286,420.290 102.11,420.32 C100.159,418.292 98.330,416.528 96.538,414.727 C123.64,431.668 156.395,441.120 197.424,441.120 C331.988,441.120 441.74,332.35 441.74,197.471 C441.74,160.827 434.779,130.267 422.939,105.155 C427.260,109.934 431.372,114.903 435.275,120.41 C435.296,120.70 435.318,120.98 435.340,120.126 C435.515,120.357 435.695,120.585 435.870,120.817 C436.620,121.814 437.356,122.823 438.90,123.833 C438.380,124.232 438.674,124.627 438.961,125.27 C439.642,125.977 440.310,126.936 440.976,127.897 C441.304,128.368 441.633,128.837 441.957,129.311 C442.590,130.238 443.211,131.173 443.830,132.109 C444.11,132.384 444.193,132.659 444.373,132.935 C444.534,133.179 444.696,133.422 444.855,133.667 C445.450,134.583 446.34,135.505 446.616,136.429 C446.935,136.938 447.254,137.448 447.570,137.959 C447.598,138.4 447.627,138.48 447.654,138.93 C448.216,139.5 448.770,139.921 449.319,140.841 C449.666,141.422 450.11,142.4 450.352,142.588 C450.885,143.499 451.412,144.414 451.933,145.333 C452.110,145.647 452.284,145.962 452.460,146.276 C452.622,146.567 452.786,146.857 452.947,147.149 C453.454,148.63 453.956,148.979 454.450,149.901 C454.525,150.41 454.598,150.183 454.673,150.323 C454.929,150.806 455.184,151.289 455.438,151.773 C455.919,152.693 456.399,153.614 456.868,154.541 C457.190,155.177 457.505,155.818 457.821,156.458 C458.279,157.386 458.737,158.313 459.183,159.248 C459.492,159.895 459.791,160.548 460.94,161.198 C460.531,162.137 460.970,163.75 461.394,164.21 C461.685,164.671 461.966,165.328 462.251,165.981 C462.670,166.938 463.91,167.893 463.497,168.857 C463.762,169.489 464.15,170.127 464.275,170.762 C464.683,171.758 465.96,172.752 465.490,173.755 C465.640,174.135 465.779,174.521 465.927,174.903 C466.754,177.42 467.546,179.198 468.308,181.368 C468.476,181.846 468.645,182.324 468.813,182.801 C468.898,183.49 468.990,183.294 469.74,183.542 C469.371,184.414 469.649,185.293 469.935,186.169 C470.203,186.990 470.477,187.809 470.736,188.635 C471.4,189.490 471.256,190.351 471.514,191.210 C471.628,191.589 471.741,191.968 471.853,192.348 C471.996,192.826 472.141,193.302 472.279,193.782 C472.523,194.631 472.754,195.486 472.988,196.339 C473.111,196.789 473.233,197.239 473.353,197.690 C473.470,198.120 473.590,198.549 473.703,198.981 C473.924,199.829 474.134,200.680 474.346,201.531 C474.570,202.430 474.793,203.330 475.5,204.233 C475.205,205.79 475.395,205.929 475.585,206.778 C475.633,206.997 475.679,207.216 475.728,207.435 C475.882,208.134 476.37,208.833 476.185,209.535 C476.362,210.380 476.533,211.228 476.701,212.76 C476.886,213.12 477.66,213.949 477.240,214.889 C477.395,215.731 477.546,216.575 477.692,217.421 C477.818,218.149 477.936,218.879 478.55,219.609 C478.92,219.837 478.132,220.65 478.168,220.293 C478.302,221.132 478.433,221.970 478.558,222.812 C478.702,223.789 478.837,224.770 478.969,225.751 C479.81,226.582 479.192,227.412 479.295,228.246 C479.393,229.39 479.478,229.835 479.568,230.631 C479.591,230.844 479.617,231.55 479.640,231.268 C479.730,232.85 479.822,232.901 479.902,233.721 C480.5,234.763 480.93,235.810 480.181,236.857 C480.248,237.650 480.320,238.441 480.378,239.235 C480.380,239.263 480.381,239.290 480.383,239.317 C480.462,240.394 480.525,241.475 480.589,242.556 C480.632,243.300 480.684,244.42 480.721,244.788 C480.743,245.244 480.753,245.704 480.773,246.161 C480.803,246.942 480.836,247.723 480.862,248.506 C480.882,249.130 480.913,249.751 480.928,250.377 C480.974,252.245 480.999,254.120 480.999,255.999 C480.999,380.264 380.264,480.999 255.999,480.999 C254.55,480.999 252.116,480.975 250.183,480.926 C249.912,480.919 249.643,480.903 249.371,480.895 Z"/>
<path fill-rule="evenodd"  fill="rgb(0, 0, 0)"
 d="M288.946,141.0 C311.619,141.0 329.999,175.758 329.999,218.635 C329.999,261.513 311.619,296.271 288.946,296.271 C266.274,296.271 247.894,261.513 247.894,218.635 C247.894,175.758 266.274,141.0 288.946,141.0 Z"/>
<path fill-rule="evenodd"  fill="rgb(0, 0, 0)"
 d="M392.947,141.0 C415.620,141.0 433.999,175.758 433.999,218.635 C433.999,261.513 415.620,296.271 392.947,296.271 C370.274,296.271 351.894,261.513 351.894,218.635 C351.894,175.758 370.274,141.0 392.947,141.0 Z"/>
</svg>